<svg xmlns="http://www.w3.org/2000/svg" width="1280" height="640" viewBox="0 0 1280 640" role="img" aria-labelledby="title desc">
  <title id="title">Follow-Up Radar social preview</title>
  <desc id="desc">Social media preview for Follow-Up Radar in navy, coral, teal, cream, and gold.</desc>
  <defs>
    <linearGradient id="bg" x1="0" y1="0" x2="1" y2="1">
      <stop offset="0" stop-color="#061527"/>
      <stop offset="0.5" stop-color="#0a2138"/>
      <stop offset="1" stop-color="#11324c"/>
    </linearGradient>
    <linearGradient id="beam" x1="0" y1="1" x2="1" y2="0">
      <stop offset="0" stop-color="#2ec4b6" stop-opacity="0.10"/>
      <stop offset="1" stop-color="#2ec4b6" stop-opacity="0.72"/>
    </linearGradient>
    <filter id="glow" x="-50%" y="-50%" width="200%" height="200%"><feGaussianBlur stdDeviation="8" result="b"/><feMerge><feMergeNode in="b"/><feMergeNode in="SourceGraphic"/></feMerge></filter>
    <pattern id="dots" width="24" height="24" patternUnits="userSpaceOnUse"><circle cx="2" cy="2" r="1.5" fill="#2ec4b6" opacity="0.16"/></pattern>
  </defs>
  <rect width="1280" height="640" rx="30" fill="url(#bg)"/>
  <rect width="1280" height="640" rx="30" fill="url(#dots)" opacity="0.7"/>
  <rect x="18" y="18" width="1244" height="604" rx="24" fill="none" stroke="#264e67" stroke-width="2"/>
  <g font-family="Segoe UI, Arial, sans-serif">
    <g transform="translate(86 74)">
      <circle cx="28" cy="28" r="26" fill="#122e47" stroke="#2ec4b6" stroke-width="3"/>
      <circle cx="28" cy="28" r="14" fill="none" stroke="#2ec4b6" stroke-width="3"/>
      <circle cx="28" cy="28" r="5" fill="#ff6b6b"/>
      <path d="M28 28 L49 7" stroke="#ff6b6b" stroke-width="7" stroke-linecap="round"/>
    </g>
    <text x="86" y="203" font-size="84" font-weight="900" fill="#f7f1e3" letter-spacing="1">FOLLOW-UP</text>
    <text x="86" y="304" font-size="108" font-weight="900" fill="#ff6b6b" letter-spacing="4">RADAR</text>
    <line x1="92" y1="329" x2="676" y2="329" stroke="#2ec4b6" stroke-width="4"/>
    <circle cx="384" cy="329" r="6" fill="#2ec4b6"/>
    <text x="92" y="377" font-size="31" fill="#f7f1e3"><tspan fill="#2ec4b6" font-weight="700">Track</tspan><tspan> what's waiting. </tspan><tspan fill="#2ec4b6" font-weight="700">Know</tspan><tspan> what's next.</tspan></text>
    <g transform="translate(92 432)">
      <g><circle cx="34" cy="34" r="31" fill="#112d46" stroke="#2ec4b6" stroke-width="2"/><path d="M18 20 h32 v28 h-32z M18 20 h12 l5 6 h15" fill="none" stroke="#2ec4b6" stroke-width="3"/><text x="34" y="87" text-anchor="middle" font-size="17" fill="#f7f1e3">Quotes</text></g>
      <g transform="translate(130 0)"><circle cx="34" cy="34" r="31" fill="#112d46" stroke="#f2b84b" stroke-width="2"/><path d="M34 14 l18 7 v12 c0 13-8 22-18 28-10-6-18-15-18-28V21z" fill="none" stroke="#f2b84b" stroke-width="3"/><path d="M25 34 l7 7 13-15" fill="none" stroke="#f2b84b" stroke-width="3"/><text x="34" y="87" text-anchor="middle" font-size="17" fill="#f7f1e3">Approvals</text></g>
      <g transform="translate(280 0)"><circle cx="34" cy="34" r="31" fill="#112d46" stroke="#2ec4b6" stroke-width="2"/><path d="M15 20 h38 v24 h-17 l-11 10v-10h-10z" fill="none" stroke="#2ec4b6" stroke-width="3"/><text x="34" y="87" text-anchor="middle" font-size="17" fill="#f7f1e3">Replies</text></g>
      <g transform="translate(410 0)"><circle cx="34" cy="34" r="31" fill="#112d46" stroke="#f2b84b" stroke-width="2"/><path d="M14 24 h18 l5 6 h18 v24H14z" fill="none" stroke="#f2b84b" stroke-width="3"/><text x="34" y="87" text-anchor="middle" font-size="17" fill="#f7f1e3">Documents</text></g>
      <g transform="translate(568 0)"><circle cx="34" cy="34" r="31" fill="#112d46" stroke="#ff6b6b" stroke-width="2"/><path d="M24 16 q4 18 22 34 l9-8-10-10-7 6q-8-7-11-16l7-4-5-10z" fill="#ff6b6b"/><text x="34" y="87" text-anchor="middle" font-size="17" fill="#f7f1e3">Callbacks</text></g>
    </g>
    <rect x="90" y="565" width="530" height="48" rx="24" fill="#f7f1e3"/>
    <text x="115" y="597" font-size="20" font-weight="700" fill="#10243a">Stay organized. Stay trusted. Stay ahead.</text>
  </g>
  <g transform="translate(934 294)">
    <circle r="226" fill="#081b2f" stroke="#2ec4b6" stroke-width="3"/>
    <circle r="170" fill="none" stroke="#2ec4b6" stroke-width="2" opacity="0.68"/>
    <circle r="112" fill="none" stroke="#2ec4b6" stroke-width="2" opacity="0.55"/>
    <circle r="57" fill="none" stroke="#2ec4b6" stroke-width="2" opacity="0.7"/>
    <line x1="-235" y1="0" x2="235" y2="0" stroke="#2ec4b6" stroke-width="2" opacity="0.6"/>
    <line x1="0" y1="-235" x2="0" y2="235" stroke="#2ec4b6" stroke-width="2" opacity="0.6"/>
    <path d="M0 0 L145 -145 A206 206 0 0 1 206 0 Z" fill="url(#beam)"/>
    <line x1="0" y1="0" x2="155" y2="-155" stroke="#2ec4b6" stroke-width="8" stroke-linecap="round" filter="url(#glow)"/>
    <circle r="30" fill="#ff6b6b"/><circle r="11" fill="#f7f1e3"/>
    <circle cx="112" cy="-102" r="10" fill="#ff6b6b"/>
    <circle cx="-120" cy="68" r="9" fill="#2ec4b6"/>
    <circle cx="72" cy="136" r="8" fill="#f2b84b"/>
    <circle cx="-64" cy="-128" r="7" fill="#2ec4b6"/>
  </g>
  <g font-family="Segoe UI, Arial, sans-serif">
    <rect x="865" y="104" width="342" height="74" rx="15" fill="#132f49" stroke="#28526d"/><rect x="865" y="104" width="8" height="74" rx="4" fill="#ff6b6b"/>
    <circle cx="906" cy="141" r="22" fill="#ff6b6b"/><text x="940" y="136" font-size="20" font-weight="700" fill="#f7f1e3">Client follow-up</text><text x="940" y="159" font-size="15" fill="#a9b7c4">Waiting on reply</text><rect x="1122" y="117" width="66" height="25" rx="7" fill="#ff6b6b"/><text x="1155" y="135" text-anchor="middle" font-size="13" font-weight="800" fill="#102033">TODAY</text>
    <rect x="878" y="196" width="342" height="74" rx="15" fill="#132f49" stroke="#28526d"/><rect x="878" y="196" width="8" height="74" rx="4" fill="#2ec4b6"/>
    <circle cx="919" cy="233" r="22" fill="#2ec4b6"/><text x="953" y="228" font-size="20" font-weight="700" fill="#f7f1e3">Proposal check-in</text><text x="953" y="251" font-size="15" fill="#a9b7c4">Reminder scheduled</text><rect x="1134" y="209" width="70" height="25" rx="7" fill="#2ec4b6"/><text x="1169" y="227" text-anchor="middle" font-size="13" font-weight="800" fill="#102033">NEXT</text>
    <rect x="882" y="396" width="320" height="76" rx="38" fill="#102b42" stroke="#f2b84b" stroke-width="2"/>
    <circle cx="925" cy="434" r="25" fill="#2ec4b6"/><path d="M912 434 l9 9 18-21" fill="none" stroke="#fff" stroke-width="5" stroke-linecap="round" stroke-linejoin="round"/>
    <text x="962" y="425" font-size="20" fill="#f2b84b">Close the loop.</text><text x="962" y="451" font-size="23" fill="#f7f1e3">Move it forward.</text>
    <text x="996" y="590" font-size="17" font-weight="700" fill="#f2b84b" letter-spacing="2">DIETRICH AI LABS</text>
  </g>
</svg>